<?xml version="1.0" encoding="utf-8"?>
<!-- Generator: Adobe Illustrator 18.1.1, SVG Export Plug-In . SVG Version: 6.00 Build 0)  -->
<svg version="1.1" id="Capa_1" xmlns="http://www.w3.org/2000/svg" xmlns:xlink="http://www.w3.org/1999/xlink" x="0px" y="0px"
	 viewBox="7 -7.4 581.4 581.4" enable-background="new 7 -7.4 581.4 581.4" xml:space="preserve">
<g>
	<g>
		<path fill="#FFFFFF" d="M587,534.9c-6.7-8.3-13.2-7.3-22.9-4c-11.9,4-10.1,6.7-15.3-8c-1.8-5.5-8.3-7.3-12.9-3.4
			c-11,10.1-23,18.7-34.3,28.5c-0.3-0.6-0.6-0.9-0.9-1.5c3.4-0.6,6.7-3.1,7-7.6c13.5-147.8,108.6-380.1-43.1-490.5
			c-97-70.4-253.7-67-334.2,25.7c-37,27.8-64.9,67.9-78.6,119C23.3,298.4,50.9,420.5,88.2,523c-4-5.5-8.3-11-12.9-16.2
			c-3.7-4.3-10.1-0.6-10.4,4.3c-0.3,11-0.6,22-0.6,33c-8-6.7-16.2-13.8-21.4-22.9c-1.8-3.4-6.4-4.6-9.8-2.8
			C22.7,524.8,2.2,548.1,8,561.8c0.9,2.4,3.4,5.2,6.4,4.9c2.8-0.3,4.3-0.9,6.1-3.1c2.1-2.1,2.1-4.9,0.9-7c1.8-7,8.3-15.9,14.1-21.4
			c8.9,11,20.5,19.6,30.9,29.1c4.3,4,12.2,1.2,11.9-4.9c0-10.7-0.3-21.7-0.6-32.4c7,8,13.8,16.5,21.1,24.2c0.3,0.9,0.9,2.1,1.2,3.1
			c2.8,6.7,13.8,4.3,11.3-3.1c-35.2-107.7-65.8-257-33-364.8c11.3,3.4,22.9,4.6,34.9,5.8c1.2,11.9,4.3,23.3,5.5,35.2
			c0.9,8,12.9,10.7,14.7,2.1c3.4-14.7,10.1-21.1,18.1-29.1c3.1,8,6.1,16.2,9.8,24.2c1.5,3.4,5.5,4,8.6,3.4
			c12.5-2.1,25.1-8.9,36.4-14.7c8.6-4.3,0.9-16.8-7.3-12.9c-8.6,4-17.1,8.6-26.3,11.3c-4-9.8-7.3-19.9-11.6-29.7
			c-2.8-5.8-10.1-4-13.2,0c-7,9.5-13.2,14.7-18.4,21.1c-1.2-5.8-2.4-11.3-3.1-17.1c-0.3-3.4-2.8-7-6.7-6.7
			c-12.9,0.9-25.4,0.9-37.9-2.1c27.5-79.3,91.5-133.4,217-127.3c30.3,1.5,55.1,8.6,75.3,19.9c-12.9,9.8-19.9,23.3-26.9,37
			c-10.1-4.9-24.5-5.2-28.8,5.8c-0.9,2.4,0,5.8,1.8,7.7c0.6,0.6,1.2,1.2,1.8,1.8c3.7,3.4,8.9,1.8,11-1.5c0.9,0.6,2.8,0.9,5.5,0.3
			c0.3,0,0.6,0.3,0.9,0.3c-7,12.2-15.6,23.6-30.3,30.6c-7,3.4-3.7,15.3,4,14.7c12.2-1.2,24.2-5.2,35.5-10.4
			c1.5,6.1,3.4,12.2,5.2,18.4c2.8,8.3,15.9,7.3,15.6-2.1c-0.6-14.4-2.8-39.8-11.6-54.8c6.1-15.6,11-30,23.3-42.8
			c94.2,61.8,78.9,227.1,61.2,357.7c-15.3,0.6-30.6,2.1-45.9,2.4c0-4.6,0-8.9,0.3-13.5c0-6.7-8-9.5-12.9-5.2
			c-5.8,4.9-12.2,8.9-19,12.5c2.8-3.1,5.8-5.8,8.6-8.9c3.1-3.1,2.4-7.3,0-10.7c-4.3-5.2-20.2-25.4-27.8-11.9
			c-4.9,8.6,1.8,16.2,8.9,20.5c-10.4,10.7-19.9,21.4-27.5,34.6c-4.6,7.6,5.5,14.7,11.9,9.2c12.5-11,28.5-17.1,42.8-25.7
			c0,2.1,0,4.3,0,6.4c0,3.7,3.4,7.3,7.3,7.3c17.7-0.9,34.6-5.5,52-8.6c-5.5,40.1-11,76.5-13.5,105.3c-0.9,12.2,17.4,12.5,19.6,0.9
			c0.9,3.4,5.8,5.5,8.3,1.2c5.8-10.7,11.9-20.5,19.3-29.7c3.7,15.9,11.3,30,18.7,44.7c2.1,4.3,8.3,4.6,11.6,1.5
			c10.7-9.8,22.3-18.1,33.4-27.2c3.1,6.7,7.3,12.9,14.7,15.6c2.8,0.9,5.5-0.3,7.3-1.8c6.7-6.1,14.4-8.3,22.3-6.7
			C588.5,544.7,589.7,538,587,534.9z M298.7,31.2c-33.7-3.4-65.8-0.6-95.2,7.3C281.3,3.7,375.8,7.4,446.8,56.9
			c-0.9-0.3-2.1-0.6-3.1-0.6c-10.7,1.8-22,3.1-28.5,11.9c-7.6-3.4-16.5-4.6-23-9.8c-1.8-1.5-4-0.9-5.5,0.3
			C363.3,44.7,334.5,34.9,298.7,31.2z M407,74.4c2.4,1.2,4.6,2.8,6.4,4.6c2.4,2.4,6.1,1.5,8-0.9c6.4-9.5,18.4-5.8,26.6-12.9
			c2.8-2.1,1.8-5.2-0.3-6.7c10.4,7.3,19.9,15.6,29.1,24.8c75.9,76.8,62.1,190,41.3,297.7c-5.8,0-11.3,2.1-16.2,5.2
			c-7.6,4.9-10.4,7.6-19.3,2.1c-4.6-2.8-9.8,0.9-10.1,5.8c-0.3,7.3-4.6,13.2-8.9,19C479,287.7,487.5,145.1,407,74.4z M492.7,528.8
			c-3.4-7.6-5.8-15.9-6.7-24.8c-0.6-4.9-7-9.5-11-4.6c-11,13.5-19.3,27.5-26.6,43.1c2.8-30.9,7.6-67,12.5-105.9
			c0.9-0.9,0.9-2.1,0.3-3.4c0-0.6,0-1.2,0.3-1.8c0.6-0.3,0.9-0.9,1.2-1.5c6.1-10.1,15.9-17.4,20.5-27.5c4.9,1.8,9.8,2.8,15,0.9
			c6.4-2.1,11.3-6.1,17.1-8.9C506.2,441.9,496.1,487.8,492.7,528.8z"/>
		<path fill="#FFFFFF" d="M233.5,366.9c-16.2-8-24.2-21.1-39.8-26.6c4-6.1,7-12.5,8.9-19.9c2.4-9.8,1.8-19.9,5.5-29.4
			c1.2-2.8-1.2-6.7-4-7c-9.2-1.5-17.4-2.1-26,2.8c-6.1,3.4-9.5,9.8-14.1,15c-1.5-2.8-6.4-2.8-7,0.6c-0.3,2.1-0.3,4.3-0.3,6.4
			c-0.3,0.9-0.3,1.8,0,2.4c0.3,10.7,3.4,21.7,5.2,31.8c1.8,10.4,2.1,24.8,8.9,33c2.4,3.1,8,1.2,8.6-2.4c1.8-9.2-3.1-19.3-5.5-27.8
			c-3.1-11.3-5.5-23-8-34.3c10.4-7.3,14.7-17.7,28.2-17.4c-4.9,16.2-4.6,31.5-17.7,45.9c-4,4.6-1.2,11.3,4.9,11.6
			c20.8,1.2,27.8,21.4,46.8,27.2C235.7,381.3,240.3,370.3,233.5,366.9z"/>
		<path fill="#FFFFFF" d="M260.8,330.8c-2.4-13.8-4.9-27.2-5.2-41.3c-0.3-5.8-8.9-5.8-9.2,0c-0.3,13.2,1.2,26.3,2.8,39.5
			c0.9,8,0.3,18.4,4,25.4c1.8,3.4,7.3,3.7,9.2,0C265.7,347.3,262.3,338.1,260.8,330.8z"/>
		<path fill="#FFFFFF" d="M312.5,272c-2.4-3.7-8-4.9-11.3-1.5c-4.3,4.6-7.6,8.9-10.4,13.5c-0.6-3.1-1.2-6.1-2.1-9.2
			c-1.2-4-7-2.4-6.4,1.8c1.2,6.1,2.1,12.5,2.8,18.7c-8,20.8-3.7,43.1,8.3,67c3.4,7.3,14.7,2.1,12.9-5.5c-2.1-7.3-3.7-14.4-5.2-21.7
			c3.1,3.7,9.2,4.6,11.3-0.6c4.3-9.5,10.1-19.3,11.9-29.7C326,292.9,319.2,281.5,312.5,272z M309.1,306.9c-2.1,7.6-6.7,14.4-9.2,22
			c-1.2-6.7-2.4-13.5-3.7-20.2c1.2-7,4.6-14.1,9.8-21.1C309.1,293.5,311,299.9,309.1,306.9z"/>
		<path fill="#FFFFFF" d="M416.5,548.7c-8.6-15.3-24.2-26-26.3-44.7c-0.9-7-9.8-10.7-14.1-3.7c-4.3,7-9.2,12.9-14.1,19
			c0-0.3,0.3-0.9,0.3-1.2c0.6-6.7-8-8.9-12.2-5.2c-10.4,9.8-21.1,17.4-34.6,23c-17.4,7.3-25.7-18.1-30.9-28.2c-2.1-4.3-8.9-4.3-11,0
			c-5.5,10.4-9.5,22.3-8.6,34c-7.6-14.7-18.4-27.5-28.2-41.3c-2.8-4.3-10.1-5.2-12.5,0l-15.3,30.6c-7-10.1-14.7-19.9-20.8-30.6
			c-3.7-6.4-12.2-3.1-13.2,3.7c-1.5,14.4-8.9,25.4-18.1,35.5c-4.6-9.8-11.9-18.7-19-26.3c-3.7-4-9.2-1.5-10.7,2.8
			c-4.3,11.6-7.7,23.6-11.9,35.2c-1.5,4.6,5.5,7.7,8,3.4c4.3-8.3,8-16.5,11.6-24.8c5.8,7.3,10.7,15.9,12.5,24.5
			c0.9,5.2,8,6.4,11.3,3.1c11-11,20.2-22.6,25.4-36.1c6.4,9.2,13.2,18.4,19,28.2c2.4,4.6,9.8,4.9,12.2,0
			c5.2-10.4,10.4-20.5,15.6-30.9c10.1,14.4,19.9,28.5,27.8,44.4c3.4,6.7,14.1,2.1,12.2-5.2c0-0.3-0.3-0.6-0.3-0.9
			c1.8,0.3,3.7-1.2,4-3.4c0-0.3,0-0.6,0-1.2c0-0.9-0.3-1.8-0.6-2.1c-1.2-6.7,1.2-15.6,4-23.6C283.4,538,291.1,553,299,552
			c17.1-1.5,31.2-7.6,44.4-16.5c-1.2,4.9-2.4,9.5-3.1,14.4c0,0,0,0,0,0.3l0,0c0,0.6-0.3,1.2-0.3,1.8c-0.6,7,11,10.4,13.8,3.7
			c6.1-13.8,16.2-24.2,25.4-35.5c5.8,12.9,15.6,22.6,24.2,35.5C409.2,564,421.1,557.2,416.5,548.7z"/>
	</g>
</g>
</svg>
